<?xml version="1.0" encoding="utf-8"?>
<!-- Generator: Adobe Illustrator 19.0.0, SVG Export Plug-In . SVG Version: 6.00 Build 0)  -->
<svg version="1.1" id="Слой_1" xmlns="http://www.w3.org/2000/svg" xmlns:xlink="http://www.w3.org/1999/xlink" x="0px" y="0px"
	 viewBox="0 0 1000 651.9" style="enable-background:new 0 0 1000 651.9;" xml:space="preserve">
<style type="text/css">
	.st0{fill:#F78F08;}
</style>
<path id="XMLID_3_" d="M351,174c0,44.3-14.2,83.2-42.5,116.6c-32.3,38.1-76.1,57.1-131.2,57.1c-55,0-98.7-19-131-57.1
	C18,257.1,3.8,218.3,3.8,174c0-20.2,3.8-41,11.5-62.2s17.9-39.5,30.8-54.6C78.4,19,122.1,0,177.3,0s98.9,19,131.2,57.1
	C336.9,90.6,351,129.5,351,174z M266.5,174c0-23-7.1-42.9-21.2-59.7c-18.1-21.4-40.8-32.1-68-32.1c-18.7,0-35.7,5.5-50.9,16.4
	c-15.2,11-26,25.5-32.5,43.7c-3.7,10.4-5.5,20.9-5.5,31.6c0,22,7.1,41.8,21.2,59.2c17.5,21.6,40.1,32.3,67.7,32.3s50.3-10.7,68-32.1
	C259.4,216.3,266.5,196.5,266.5,174z"/>
<path id="XMLID_6_" d="M673.6,336H592L442,136.2V336h-81.6V9.8H442L592,209.3V9.8h81.6V336z"/>
<path id="XMLID_8_" d="M875.5,336H697V9.8h178.6v70.7h-97v55.7h91.7v70.7h-91.7v58.3h97V336z"/>
<path id="XMLID_10_" class="st0" d="M239.9,592.1c-26.7,11-51.3,16.5-74,16.5c-39.5,0-74.9-13.1-106.2-39.4
	C19.9,535.5,0,491.7,0,437.7c0-54.2,19.9-98.1,59.8-131.7c31.3-26.3,66.9-39.4,106.9-39.4c21.8,0,46.2,5.5,73.3,16.5v101.6
	c-7.7-9.8-15.5-17.2-23.5-22.1c-14.6-9.1-30.2-13.7-46.9-13.7c-21.2,0-39.6,6.6-55.2,19.9c-19.8,16.8-29.7,39.8-29.7,69
	c0,29.1,9.9,52,29.7,68.8c15.6,13.3,34.1,19.9,55.2,19.9c16.7,0,32.4-4.6,46.9-13.7c7.8-4.8,15.6-12.2,23.5-22.1V592.1z"/>
<path id="XMLID_16_" class="st0" d="M343.8,600.7h-81.6V274.5h81.6V600.7z"/>
<path id="XMLID_18_" class="st0" d="M689.9,592.1c-26.7,11-51.3,16.5-74,16.5c-39.5,0-74.9-13.1-106.2-39.4
	c-39.8-33.6-59.8-77.4-59.8-131.4c0-54.2,19.9-98.1,59.8-131.7c31.3-26.3,66.9-39.4,106.9-39.4c21.8,0,46.2,5.5,73.3,16.5v101.6
	c-7.7-9.8-15.5-17.2-23.5-22.1c-14.6-9.1-30.2-13.7-46.9-13.7c-21.2,0-39.6,6.6-55.2,19.9c-19.8,16.8-29.7,39.8-29.7,69
	c0,29.1,9.9,52,29.7,68.8c15.6,13.3,34.1,19.9,55.2,19.9c16.7,0,32.4-4.6,46.9-13.7c7.8-4.8,15.6-12.2,23.5-22.1V592.1z"/>
<path id="XMLID_20_" class="st0" d="M1000,600.7H894.5L788.6,459.2v141.5H707V274.5h81.6V409l99.5-134.5h100.4L864.2,428.9
	L1000,600.7z"/>
<g id="XMLID_1_">
	<rect id="XMLID_25_" x="361" y="382" class="st0" width="76" height="218"/>
	<path id="XMLID_26_" class="st0" d="M359.9,313.9L359.9,313.9c0,22.4,18.2,40.5,40.6,40.5h0c22.4,0,40.6-18.1,40.6-40.5v0
		c0-22.4-18.2-40.5-40.6-40.5h0C378,273.3,359.9,291.5,359.9,313.9z"/>
</g>
<path id="XMLID_15_" d="M389,651.8h-4.1v-60.2l-27.3,60.3h-4.6l-27.3-60.3v60.3h-4.1v-70.1h3.9l29.8,65.1l29.5-65.1h4.1V651.8z"/>
<path id="XMLID_24_" d="M482.3,585.9v28.9h32.9v4.1h-32.9v28.9H521v4.1h-42.8v-70.1H521v4.1H482.3z"/>
<path id="XMLID_28_" d="M670.2,616.9c0,18-7.4,32.3-23,34.6c-2.4,0.4-5.9,0.5-9.2,0.5h-20.5v-70.1H638c3.3,0,6.8,0.1,9.2,0.5
	C662.8,584.6,670.2,598.9,670.2,616.9z M665.8,616.9c0-15.4-4.8-27.7-19.2-30.4c-2.1-0.4-5.6-0.6-8.7-0.6h-16.2v61.9H638
	c3.1,0,6.5-0.2,8.7-0.6C661.1,644.6,665.8,632.3,665.8,616.9z"/>
<path id="XMLID_31_" d="M790.1,581.8v70.1H786v-70.1H790.1z"/>
<path id="XMLID_33_" d="M949,633.7h-33.4l-6.6,18.2h-4.4l25.5-70.1h4.4l25.5,70.1h-4.4L949,633.7z M947.5,629.8l-15.3-42.1
	L917,629.8H947.5z"/>
</svg>
